<?xml version="1.0" encoding="utf-8"?>
<!-- Generator: Adobe Illustrator 15.0.2, SVG Export Plug-In . SVG Version: 6.00 Build 0)  -->
<!DOCTYPE svg PUBLIC "-//W3C//DTD SVG 1.1//EN" "http://www.w3.org/Graphics/SVG/1.1/DTD/svg11.dtd">
<svg version="1.1" id="Layer_1" xmlns="http://www.w3.org/2000/svg" xmlns:xlink="http://www.w3.org/1999/xlink" x="0px" y="0px"
	 width="300px" height="300px" viewBox="0 0 300 300" enable-background="new 0 0 300 300" xml:space="preserve">
<path id="path1945" d="M39.816,261.927c0-0.073,0.119-0.133,0.265-0.133c0.145,0,0.264,0.06,0.264,0.133
	c0,0.072-0.119,0.132-0.264,0.132C39.936,262.059,39.816,261.999,39.816,261.927z M34.589,261.654
	c-0.047-0.076-0.271-0.12-0.498-0.099c-0.827,0.08-0.766-0.976,0.113-1.935c0.156-0.17,0.509-0.335,0.827-0.386
	c0.305-0.049,0.555-0.151,0.555-0.227c0-0.076,0.265-0.256,0.589-0.399s0.628-0.324,0.676-0.4c0.052-0.085,0.271-0.106,0.548-0.055
	c0.322,0.061,0.526,0.027,0.679-0.11c0.316-0.287,0.875-0.474,1.065-0.356c0.094,0.059,0.146,0.292,0.121,0.546
	c-0.036,0.373-0.106,0.457-0.439,0.525c-0.598,0.124-1.256,0.505-1.256,0.728c0,0.108-0.148,0.266-0.328,0.348
	c-0.181,0.082-0.361,0.244-0.402,0.36C36.675,260.664,34.75,261.914,34.589,261.654z M42.917,260.593
	c-0.136-0.221,0.17-0.474,0.353-0.291c0.153,0.152,0.057,0.435-0.147,0.435C43.058,260.736,42.965,260.672,42.917,260.593z
	 M43.783,260.075c0-0.072,0.026-0.132,0.058-0.132s0.095,0.06,0.14,0.132c0.045,0.073,0.019,0.132-0.059,0.132
	C43.846,260.207,43.783,260.148,43.783,260.075z M45.032,259.361c-0.2-0.4-0.195-0.418,0.201-0.773
	c0.408-0.366,0.975-0.48,1.131-0.229c0.046,0.075,0.243,0.12,0.438,0.1c0.269-0.027,0.361,0.026,0.387,0.228
	c0.019,0.146-0.021,0.351-0.089,0.455c-0.102,0.157-0.159,0.16-0.332,0.017c-0.231-0.191-0.29-0.011-0.069,0.21
	c0.185,0.185-0.45,0.442-1.032,0.419C45.327,259.774,45.194,259.686,45.032,259.361z M32.993,258.565
	c-0.04-0.104,0.022-0.331,0.137-0.507c0.195-0.298,0.189-0.356-0.078-0.845c-0.376-0.687-0.816-0.904-1.25-0.62
	c-0.229,0.15-0.472,0.185-0.86,0.122c-0.298-0.047-0.609-0.031-0.692,0.036c-0.248,0.2-1.141,0.679-1.269,0.679
	c-0.065,0-0.199-0.08-0.297-0.178c-0.098-0.099-0.415-0.234-0.704-0.303c-0.665-0.156-0.778-0.567-0.255-0.929
	c0.194-0.134,0.553-0.441,0.799-0.683c0.246-0.241,0.505-0.402,0.577-0.358s0.248-0.038,0.392-0.183
	c0.262-0.262,0.262-0.263-0.012-0.35c-0.232-0.073-0.391-0.111-0.758-0.181c-0.125-0.023,0.44-0.539,0.592-0.539
	c0.092,0,0.348-0.104,0.567-0.229c0.443-0.254,0.989-1.466,0.799-1.772c-0.083-0.135-0.124-0.125-0.189,0.043
	c-0.104,0.271-0.697,0.523-1.114,0.476c-0.268-0.031-0.4,0.108-0.856,0.904c-0.422,0.738-2.015,2.562-2.236,2.562
	c-0.106,0,0.167-1.438,0.359-1.9c0.249-0.594,0.265-0.744,0.082-0.744c-0.073,0-0.132,0.054-0.132,0.118
	c0,0.065-0.179,0.31-0.396,0.543c-0.218,0.233-0.397,0.494-0.397,0.578c0,0.085-0.155,0.382-0.344,0.66
	c-0.48,0.706-0.662,0.466-0.38-0.503c0.204-0.701,0.204-0.766,0.001-0.914c-0.178-0.13-0.192-0.229-0.078-0.528
	c0.211-0.557,0.175-0.676-0.255-0.839c-0.227-0.085-0.453-0.3-0.53-0.502c-0.115-0.304-0.188-0.341-0.517-0.269
	c-0.424,0.093-1.509-0.223-2.913-0.849c-0.477-0.212-1.085-0.422-1.351-0.465c-0.266-0.044-0.555-0.167-0.644-0.274
	c-0.089-0.106-0.306-0.194-0.481-0.194c-0.389,0-1.264-0.431-1.915-0.943c-0.265-0.208-0.578-0.379-0.696-0.379
	s-0.317-0.056-0.444-0.123c-0.126-0.067-0.334-0.154-0.463-0.194s-0.291-0.223-0.36-0.406s-0.173-0.342-0.229-0.352
	c-0.056-0.009-0.241-0.03-0.411-0.048s-0.399-0.122-0.51-0.233c-0.17-0.171-0.176-0.271-0.034-0.665
	c0.157-0.435,0.142-0.503-0.25-1.095c-0.466-0.704-0.519-1.103-0.208-1.576c0.251-0.383,0.18-0.536-0.306-0.658
	c-0.476-0.119-0.56-0.274-0.562-1.031c-0.002-0.55-0.05-0.659-0.38-0.859c-0.814-0.495-1.341-1.51-1.341-2.583
	c0-0.375,0.083-0.53,0.405-0.76l0.406-0.289l-0.273-0.29c-0.449-0.479-0.355-0.987,0.285-1.556c0.307-0.272,0.724-0.531,0.926-0.576
	c0.465-0.102,0.461-0.208-0.029-0.767c-0.218-0.248-0.397-0.494-0.397-0.546c0-0.231,1.506-2.127,1.862-2.343
	c0.217-0.132,0.432-0.344,0.477-0.471c0.157-0.445,0.613-0.825,0.99-0.825c0.206,0,0.374-0.062,0.374-0.14
	c0-0.254,0.987-1.05,1.304-1.05c0.268-0.001,0.3-0.049,0.228-0.337c-0.146-0.579,0.162-1.352,0.802-2.016
	c0.654-0.677,0.84-1.033,0.84-1.607c0-0.205,0.082-0.44,0.183-0.523c0.1-0.083,0.218-0.33,0.262-0.548
	c0.062-0.312,0.167-0.414,0.494-0.479c0.23-0.046,0.675-0.336,1.001-0.653c0.507-0.492,0.567-0.607,0.443-0.84
	c-0.173-0.323-0.175-0.324-0.688-0.059c-0.224,0.115-0.559,0.182-0.743,0.146c-0.24-0.045-0.662,0.123-1.465,0.583
	c-0.691,0.396-1.289,0.647-1.542,0.647c-0.294,0-0.735,0.229-1.526,0.795c-0.611,0.438-1.424,0.912-1.806,1.056
	c-0.886,0.333-1.605,0.788-2.668,1.688c-0.467,0.396-1.062,0.811-1.322,0.922c-1.991,0.855-2.769,1.316-3.665,2.174
	c-0.648,0.619-1.048,0.903-1.272,0.903c-0.235,0-0.694,0.353-1.613,1.241c-1.538,1.486-2.019,1.786-2.508,1.563
	c-0.266-0.122-0.339-0.251-0.339-0.6c0-0.91,0.682-1.905,2.84-4.148c2.139-2.222,2.706-2.685,3.289-2.685
	c0.289,0,0.41-0.126,0.73-0.761c0.444-0.879,0.654-1.092,1.471-1.482c1.005-0.482,1.109-0.552,3.302-2.221
	c2.312-1.761,5.812-4.118,7.078-4.768c0.436-0.225,0.934-0.56,1.104-0.745c0.171-0.186,0.365-0.337,0.43-0.337
	c0.15,0,0.156-0.963,0.007-1.131c-0.062-0.068-0.249-0.482-0.417-0.919c-0.168-0.436-0.351-0.844-0.406-0.907
	c-0.104-0.118-1.46,0.273-1.581,0.456c-0.15,0.229-0.809,0.478-1.109,0.42c-0.178-0.034-0.349-0.181-0.389-0.335
	c-0.057-0.216,0.219-0.555,1.31-1.614c0.76-0.737,1.382-1.438,1.382-1.559c0-0.119-0.17-0.506-0.378-0.859
	c-0.211-0.357-0.443-1.02-0.524-1.493c-0.292-1.709-0.293-1.711-0.833-2.052c-0.282-0.178-0.513-0.371-0.513-0.431
	c0-0.059,0.193-0.191,0.43-0.295c0.354-0.156,0.437-0.272,0.469-0.663c0.021-0.26-0.074-0.766-0.213-1.124
	c-0.208-0.532-0.358-0.703-0.833-0.939c-0.319-0.159-0.925-0.361-1.346-0.448c-0.937-0.194-1.417-0.542-1.414-1.024
	c0.003-0.535,0.169-0.703,1.012-1.021c0.599-0.227,0.763-0.347,0.736-0.539c-0.135-0.94-0.091-1.064,0.699-1.965
	c0.43-0.489,0.922-0.943,1.093-1.009c0.484-0.185,0.306-0.542-0.458-0.914c-0.832-0.406-1.233-0.754-1.233-1.067
	c0-0.364,0.193-0.415,1.511-0.396c1.202,0.019,1.662-0.051,1.662-0.248c0-0.056-0.567-0.657-1.261-1.339
	c-0.713-0.7-1.292-1.384-1.332-1.572c-0.14-0.665-0.311-0.913-0.784-1.138c-0.265-0.126-0.514-0.311-0.552-0.411
	c-0.099-0.258,0.329-0.687,0.809-0.811c0.365-0.095,0.407-0.158,0.413-0.626c0.004-0.287-0.039-0.585-0.094-0.662
	c-0.193-0.271-0.163-0.967,0.052-1.206c0.19-0.213,0.194-0.299,0.029-0.769c-0.287-0.818-0.22-1.521,0.145-1.521
	c0.308,0,0.295-0.322-0.023-0.622c-0.663-0.622-0.165-1.361,0.918-1.361c0.431,0,1.016-0.156,2.14-0.572
	c0.409-0.151,0.549-0.286,0.633-0.609c0.064-0.248,0.239-0.475,0.434-0.563c0.311-0.143,0.316-0.164,0.116-0.47
	c-0.115-0.176-0.188-0.342-0.163-0.367c0.174-0.174,1.053-0.713,1.283-0.785c0.153-0.049,0.276-0.158,0.273-0.244
	c-0.007-0.248-0.437-0.7-0.888-0.933c-0.228-0.118-0.446-0.267-0.486-0.331c-0.089-0.145,0.296-0.942,0.455-0.942
	c0.063,0,0.338-0.337,0.611-0.747c0.272-0.411,0.694-0.864,0.936-1.007s0.498-0.368,0.569-0.501
	c0.195-0.363,0.157-1.049-0.063-1.133c-0.105-0.041-0.262-0.291-0.347-0.558s-0.207-0.541-0.271-0.61
	c-0.214-0.23-0.12-0.593,0.21-0.809c0.24-0.157,0.511-0.195,1.024-0.145c0.384,0.039,1.423,0.133,2.308,0.208
	c1.427,0.122,2.009,0.246,2.857,0.604c0.213,0.091,0.221,0.064,0.078-0.279c-0.167-0.401-0.706-0.975-0.916-0.975
	c-0.068,0-0.125,0.088-0.125,0.195c0,0.251-0.631,0.416-0.83,0.218c-0.202-0.201,0.004-0.382,0.498-0.436
	c0.322-0.035,0.409-0.117,0.463-0.434c0.06-0.345,0.129-0.396,0.596-0.441c0.626-0.061,0.753-0.144,0.374-0.243
	c-0.152-0.039-0.343-0.219-0.425-0.398c-0.082-0.18-0.199-0.296-0.261-0.258c-0.164,0.102-0.415-0.525-0.415-1.038
	c0-0.296,0.106-0.546,0.322-0.753c0.406-0.391,0.734-0.396,1.042-0.015c0.165,0.203,0.384,0.297,0.695,0.297
	c0.32,0,0.54,0.098,0.742,0.331c0.352,0.404,0.769,0.439,0.769,0.064c0-0.146-0.104-0.35-0.231-0.452
	c-1.874-1.513-2.016-1.667-2.016-2.189c0-0.281,0.074-0.59,0.165-0.687c0.091-0.096,0.243-0.323,0.338-0.505
	c0.411-0.785,1.125-1.302,2.431-1.759c0.123-0.043,0.285-0.303,0.361-0.577c0.152-0.549,1.182-1.587,1.706-1.719
	c0.169-0.043,0.556-0.044,0.859-0.002c0.583,0.08,1.087-0.167,1.167-0.571c0.074-0.377-0.333-1.047-0.682-1.124
	c-0.186-0.041-0.722-0.327-1.192-0.636c-0.796-0.522-0.854-0.594-0.833-1.021c0.021-0.438,0.029-0.99,0.023-1.715
	c-0.005-0.688,0.191-2.455,0.295-2.657c0.125-0.239,1.659-0.781,2.215-0.781c0.704,0,1.634,1.762,1.676,3.173
	c0.037,1.252,0.047,1.301,0.208,1.024c0.074-0.127,0.223-0.231,0.331-0.231c0.159,0,0.181-0.132,0.115-0.694
	c-0.045-0.382-0.102-0.76-0.126-0.842c-0.024-0.081,0.021-0.616,0.1-1.189c0.149-1.076,0.22-1.189,1.006-1.604
	c0.45-0.237,1.795-0.215,2.001,0.033c0.349,0.42,0.463,0.211,0.463-0.848c0-0.576-0.045-1.091-0.099-1.146
	c-0.055-0.055-0.099-0.298-0.099-0.54c0-0.692,0.696-1.234,1.585-1.234c0.452,0,1.191,0.581,1.191,0.935
	c0,0.138,0.094,0.485,0.209,0.772c0.16,0.4,0.345,0.585,0.792,0.796c0.745,0.35,0.875,0.345,1.517-0.061
	c1.075-0.679,1.184-0.831,1.184-1.653c0-0.882,0.173-1.452,0.662-2.178c0.196-0.291,0.456-0.692,0.578-0.893
	c0.205-0.337,0.284-0.363,1.086-0.363c0.476,0,0.979-0.061,1.117-0.135c0.488-0.261,1.514-0.381,2.111-0.247
	c0.572,0.128,0.587,0.123,0.984-0.365c1.006-1.235,1.049-1.268,1.748-1.335c0.673-0.065,1.456,0.184,1.878,0.596
	c0.153,0.148,0.223,0.134,0.434-0.093c0.138-0.148,0.397-0.307,0.576-0.352c0.178-0.044,0.45-0.285,0.604-0.534
	c0.154-0.249,0.452-0.542,0.664-0.65c0.211-0.109,0.384-0.287,0.384-0.394c0-0.331,0.845-0.229,2.154,0.259
	c1.862,0.694,1.915,0.701,2.113,0.255c0.353-0.796,0.64-1.244,0.752-1.174c0.067,0.041,0.068,0.242,0.004,0.467
	c-0.087,0.305-0.07,0.399,0.076,0.415c0.104,0.011,0.244,0.025,0.311,0.033c0.169,0.019,0.808-1.239,1.25-2.458
	c0.203-0.56,0.453-1.087,0.556-1.173c0.103-0.085,0.188-0.23,0.188-0.321s0.089-0.24,0.198-0.331
	c0.293-0.243,0.261,0.125-0.12,1.388c-0.446,1.48-0.59,2.177-0.466,2.254c0.194,0.12,0.76-0.632,0.903-1.198
	c0.077-0.306,0.239-0.639,0.36-0.739c0.203-0.168,0.214-0.12,0.137,0.609c-0.091,0.862-0.125,0.897,0.541-0.562
	c0.254-0.556,0.584-0.918,1.662-1.822c2.279-1.909,2.387-1.988,2.956-2.154c0.449-0.131,0.58-0.244,0.698-0.602
	c0.172-0.521,0.09-0.793-0.413-1.377c-0.299-0.348-0.375-0.562-0.375-1.073c0-1.257,0.725-1.629,2.344-1.204
	c0.949,0.25,1.829,0.231,2.112-0.044c0.123-0.119,0.115-0.563-0.035-1.987c-0.106-1.009-0.221-1.877-0.253-1.931
	c-0.033-0.053-0.473-0.131-0.978-0.174c-0.596-0.05-1.023-0.161-1.217-0.317c-0.516-0.415-0.915-0.868-0.915-1.039
	c0-0.091-0.085-0.198-0.188-0.237c-0.64-0.246-0.908-2.618-0.407-3.594c0.295-0.575,0.844-1.254,1.014-1.254
	c0.061,0,0.421-0.15,0.801-0.333c1.05-0.506,1.912-0.564,2.699-0.18c0.354,0.173,0.672,0.345,0.708,0.383
	c0.138,0.144,0.816,0.395,1.067,0.395c0.166,0,0.309-0.133,0.39-0.364c0.133-0.374,0.154-0.411,0.578-1.012
	c0.138-0.195,0.265-0.491,0.284-0.657c0.06-0.543,0.606-1.459,1.234-2.066c0.379-0.367,0.688-0.819,0.807-1.178
	c0.205-0.622,0.619-1.09,1.26-1.429c0.218-0.115,0.63-0.409,0.916-0.652c0.286-0.244,0.575-0.443,0.642-0.443
	s0.402-0.297,0.744-0.661c0.451-0.481,0.719-0.661,0.982-0.661c0.302,0,0.403-0.097,0.614-0.589
	c0.188-0.438,0.439-0.712,0.981-1.073c0.401-0.267,0.826-0.631,0.944-0.812c0.118-0.18,0.496-0.444,0.84-0.587
	c0.398-0.165,0.715-0.411,0.87-0.672c0.388-0.657,1.137-1.424,1.39-1.424c0.339,0,0.571-0.343,0.655-0.969
	c0.064-0.484,0.136-0.579,0.603-0.795c0.291-0.135,0.647-0.354,0.793-0.487s0.443-0.283,0.661-0.333
	c0.861-0.199,0.992-0.378,0.987-1.353c-0.002-0.572-0.073-0.981-0.198-1.146c-0.267-0.353-0.243-0.7,0.059-0.861
	c0.139-0.075,0.379-0.34,0.534-0.59c0.154-0.25,0.418-0.504,0.586-0.564c0.168-0.06,0.588-0.359,0.934-0.666
	c0.616-0.546,0.625-0.565,0.451-0.958c-0.098-0.221-0.223-0.401-0.277-0.401c-0.055,0-0.1-0.085-0.1-0.189s-0.074-0.269-0.165-0.366
	c-0.294-0.314-0.622-1.085-0.692-1.627c-0.262-2.032-0.155-3.848,0.274-4.671c0.101-0.195,0.185-0.402,0.185-0.461
	c0.001-0.126,0.465-0.652,1.406-1.594c0.938-0.938,1.524-1.405,1.763-1.406c0.112,0,0.378-0.092,0.592-0.204
	c0.287-0.149,0.879-0.21,2.258-0.231c1.643-0.024,1.928,0.004,2.355,0.234c0.267,0.144,0.486,0.306,0.486,0.36
	c0,0.157,0.751,0.502,1.084,0.498c0.167-0.002,0.419-0.092,0.561-0.199c0.142-0.106,0.392-0.194,0.556-0.194
	c0.165,0,0.451-0.069,0.635-0.153c0.264-0.12,0.577-0.105,1.468,0.07c0.623,0.122,1.179,0.194,1.235,0.159
	c0.056-0.035,0.077-0.238,0.046-0.451c-0.031-0.212,0.008-0.427,0.088-0.476s0.145-0.231,0.145-0.405
	c0-0.173,0.061-0.353,0.136-0.398c0.081-0.05,0.103-0.332,0.053-0.703c-0.069-0.517-0.038-0.659,0.183-0.859
	c0.146-0.132,0.341-0.496,0.434-0.808c0.185-0.628,0.812-1.091,1.303-0.962c0.201,0.052,0.271,0.008,0.271-0.172
	c0-0.133,0.149-0.359,0.331-0.502c0.182-0.143,0.331-0.333,0.331-0.424c0-0.09,0.125-0.366,0.279-0.614
	c0.191-0.309,0.258-0.584,0.213-0.875c-0.077-0.496,0.347-1.371,0.722-1.489c0.25-0.08,0.34-0.456,0.108-0.456
	c-0.073,0-0.132-0.082-0.132-0.182s-0.086-0.253-0.19-0.34c-0.104-0.086-0.228-0.332-0.274-0.545s-0.145-0.388-0.218-0.388
	c-0.195,0-0.059-1.684,0.187-2.313c0.219-0.563,0.954-1.521,1.167-1.521c0.07,0,0.363-0.149,0.651-0.331
	c0.457-0.289,0.673-0.331,1.696-0.331c0.991,0,1.208-0.04,1.403-0.256c0.127-0.141,0.3-0.23,0.384-0.2
	c0.336,0.123,0.51-0.154,0.388-0.617c-0.065-0.247-0.08-0.668-0.033-0.938c0.074-0.423,0.049-0.495-0.18-0.529
	c-0.419-0.062-0.415-0.362,0.006-0.509c0.335-0.117,0.403-0.234,0.553-0.956c0.287-1.38,0.335-1.484,0.696-1.484
	c0.18,0,0.438-0.11,0.572-0.244c0.302-0.301,0.91-0.212,1.346,0.197l0.298,0.281l0.16-0.352c0.174-0.382,0.598-0.552,1.031-0.415
	c0.235,0.075,0.274,0.032,0.274-0.304c0-0.229,0.083-0.424,0.201-0.469c0.147-0.056,0.177-0.177,0.112-0.444
	c-0.119-0.488-0.295-0.581-0.702-0.371c-0.186,0.096-0.606,0.196-0.933,0.222c-0.523,0.042-0.6,0.014-0.635-0.232
	c-0.031-0.216,0.047-0.297,0.345-0.356c0.212-0.042,0.566-0.229,0.786-0.415c0.467-0.393,0.593-0.41,1.014-0.134
	c0.292,0.191,0.348,0.179,0.905-0.197c0.327-0.22,0.691-0.606,0.811-0.857c0.301-0.634,1.132-1.53,1.42-1.53
	c0.133,0,0.332-0.18,0.45-0.407c0.2-0.386,0.197-0.41-0.051-0.475c-0.361-0.094-0.474-0.592-0.184-0.813
	c0.251-0.191,1.152-0.113,1.438,0.124c0.123,0.102,0.206-0.005,0.334-0.432c0.093-0.312,0.276-0.674,0.405-0.803
	c0.239-0.239,0.281-0.421,0.239-1.059c-0.018-0.275,0.06-0.4,0.325-0.521c0.24-0.109,0.33-0.234,0.287-0.398
	c-0.034-0.132-0.009-0.272,0.058-0.313c0.205-0.127,0.131-0.323-0.123-0.323c-0.133,0-0.32-0.146-0.416-0.324
	c-0.154-0.288-0.13-0.411,0.209-1.091l0.383-0.767l0.76-0.012c0.949-0.015,0.998,0.198,0.231,1.02
	c-0.673,0.722-0.696,1.042-0.075,1.042c0.688,0,1.12-0.217,1.37-0.687c0.124-0.234,0.39-0.575,0.589-0.758
	c0.409-0.375,0.451-0.566,0.173-0.797c-0.313-0.259-0.11-1.427,0.347-1.998c0.208-0.26,0.367-0.587,0.354-0.728
	c-0.061-0.662,0.022-0.834,0.481-1c0.395-0.143,0.462-0.228,0.462-0.583c0-0.789,0.589-1.555,0.86-1.118
	c0.18,0.292,0.797,0.127,1.256-0.337c0.254-0.257,0.567-0.568,0.694-0.689c0.28-0.269,0.288-0.54,0.028-0.884
	c-0.113-0.149-0.159-0.371-0.109-0.529c0.139-0.443,1.26-1.792,1.489-1.792c0.149,0,0.222-0.142,0.246-0.477
	c0.044-0.625,0.073-0.66,0.765-0.966c0.325-0.144,0.589-0.351,0.589-0.462c0-0.11,0.164-0.374,0.364-0.584
	c0.2-0.211,0.467-0.511,0.594-0.666c0.281-0.345,0.384-0.35,0.771-0.037c0.299,0.242,0.3,0.254,0.078,0.76
	c-0.124,0.283-0.313,0.684-0.421,0.889c-0.107,0.206-0.195,0.607-0.195,0.893s-0.044,0.526-0.099,0.535s-0.235,0.031-0.401,0.048
	c-0.389,0.041-0.375,0.016-0.467,0.833c-0.096,0.848,0.04,0.944,0.878,0.624c0.358-0.137,0.767-0.445,1.069-0.806
	c0.544-0.651,0.805-0.713,1.317-0.31c0.316,0.249,0.357,0.254,0.434,0.053c0.093-0.244-0.146-0.454-0.52-0.457
	c-0.312-0.003-0.401-0.272-0.236-0.707c0.083-0.218,0.234-0.354,0.395-0.354c0.143,0,0.296-0.06,0.342-0.132
	c0.154-0.25,0.691-0.132,1.054,0.231c0.329,0.329,0.455,0.364,1.307,0.364h0.944l-0.046,0.932c-0.056,1.155,0.036,1.25,1.153,1.201
	c0.796-0.035,0.858-0.015,1.481,0.492c0.357,0.291,0.65,0.6,0.65,0.686s0.119,0.309,0.265,0.493
	c0.145,0.185,0.264,0.463,0.264,0.617c0,0.181,0.165,0.378,0.463,0.554c0.515,0.304,0.623,0.759,0.208,0.868
	c-0.141,0.037-0.287,0.147-0.324,0.247c-0.071,0.184,0.495,1.313,0.73,1.458c0.275,0.17,0.61-0.354,0.668-1.045
	c0.112-1.364,0.98-2.6,2.023-2.882c0.291-0.079,0.602-0.203,0.689-0.275c0.196-0.161,1.34-0.067,2.161,0.177
	c0.737,0.219,1.697,1.148,1.963,1.901c0.104,0.293,0.182,0.98,0.176,1.554c-0.009,0.874-0.065,1.123-0.375,1.651
	c-0.2,0.342-0.488,0.726-0.639,0.853c-0.478,0.403-1.566,0.897-1.985,0.9c-0.507,0.003-0.98,0.362-1.028,0.778
	c-0.03,0.262,0.042,0.34,0.407,0.437c0.378,0.101,0.435,0.167,0.382,0.441c-0.034,0.18,0.019,0.388,0.119,0.472
	c0.099,0.082,0.18,0.291,0.18,0.463c0,0.252,0.069,0.314,0.35,0.314c0.421,0,1.236-0.781,1.236-1.184
	c0-0.16,0.087-0.271,0.211-0.271c0.171,0,0.202,0.127,0.165,0.686l-0.045,0.687l0.553,0.14c0.304,0.077,0.597,0.185,0.65,0.239
	c0.188,0.192,0.334,0.096,0.251-0.165c-0.111-0.35,0.332-0.363,0.645-0.019c0.198,0.219,0.2,0.264,0.021,0.413
	c-0.266,0.22-0.256,0.389,0.029,0.49c0.639,0.226,0.879,0.792,0.52,1.221c-0.252,0.301-0.538,1.283-0.433,1.488
	c0.049,0.096,0.175,0.324,0.28,0.505c0.265,0.458,0.241,0.891-0.069,1.286c-0.173,0.219-0.265,0.537-0.265,0.91
	c0,0.501-0.049,0.599-0.391,0.775c-0.214,0.111-0.51,0.202-0.656,0.202c-0.356,0-0.569,0.435-0.471,0.96
	c0.071,0.381,0.032,0.456-0.358,0.686c-0.523,0.309-0.832,0.661-1.049,1.196c-0.088,0.218-0.229,0.486-0.314,0.595
	c-0.085,0.109-0.236,0.407-0.335,0.661s-0.227,0.496-0.285,0.536s-0.162,0.338-0.23,0.661c-0.314,1.483-0.382,1.625-1.092,2.27
	c-0.387,0.352-0.911,0.778-1.167,0.948c-0.617,0.41-0.738,0.573-0.915,1.234c-0.152,0.569-0.811,1.227-1.228,1.227
	c-0.112,0-0.282,0.095-0.379,0.212s-0.312,0.264-0.479,0.327c-0.225,0.086-0.303,0.22-0.303,0.522c0,0.537-0.296,1.088-0.701,1.305
	c-0.18,0.096-0.401,0.314-0.493,0.484c-0.095,0.178-0.312,0.326-0.51,0.349c-0.266,0.031-0.348,0.116-0.355,0.371
	c-0.019,0.583-0.05,0.644-0.419,0.82c-0.276,0.131-0.375,0.284-0.408,0.635c-0.051,0.537-0.227,0.793-0.547,0.793
	c-0.125,0-0.337,0.121-0.471,0.269s-0.32,0.24-0.413,0.204s-0.294,0.111-0.446,0.326c-0.153,0.215-0.331,0.391-0.395,0.391
	c-0.305,0-0.831,0.689-0.882,1.156c-0.03,0.273-0.156,0.639-0.28,0.812c-0.124,0.173-0.285,0.418-0.359,0.543
	c-0.241,0.407-0.952,1.162-1.238,1.315c-0.154,0.082-0.28,0.233-0.28,0.336s-0.158,0.264-0.35,0.359
	c-0.192,0.095-0.435,0.302-0.538,0.459c-0.183,0.279-0.162,0.295,0.78,0.581c0.532,0.162,1.405,0.499,1.939,0.749
	c0.534,0.25,1.189,0.482,1.454,0.518c0.499,0.066,1.863,0.674,2.034,0.907c0.054,0.073,0.099,0.088,0.1,0.036
	c0.003-0.154,1.205,0.56,1.525,0.906c0.16,0.173,0.355,0.314,0.433,0.314s0.22,0.075,0.317,0.166
	c0.436,0.406,0.968,0.608,1.232,0.467c0.463-0.247,0.857-0.672,0.857-0.923c0-0.279,0.272-0.407,1.371-0.648l0.776-0.169l0.348,0.42
	c0.308,0.373,0.402,0.412,0.829,0.341c0.333-0.056,0.525-0.177,0.625-0.396c0.095-0.208,0.255-0.315,0.469-0.315
	c0.339,0,0.51-0.295,0.53-0.914c0.008-0.265,0.109-0.343,0.598-0.463c0.493-0.121,0.604-0.208,0.69-0.545
	c0.136-0.53,0.83-1.226,1.274-1.277c0.257-0.03,0.373-0.133,0.422-0.372c0.101-0.5,0.276-0.699,0.905-1.025
	c0.764-0.396,0.906-0.379,1.438,0.168c0.646,0.664,0.956,0.323,0.501-0.549c-0.108-0.208-0.197-0.633-0.198-0.944
	c-0.001-0.524,0.028-0.571,0.4-0.646c0.452-0.09,0.581-0.276,0.716-1.037c0.103-0.574,0.492-1.084,0.969-1.268
	c0.166-0.064,0.341-0.222,0.389-0.35c0.196-0.522,0.936-0.729,1.51-0.422c0.312,0.167,0.644-0.04,0.644-0.402
	c0-0.267,0.358-1.022,0.537-1.133c0.068-0.042,0.124-0.316,0.124-0.61c0-0.418,0.1-0.65,0.463-1.074
	c0.255-0.297,0.463-0.612,0.463-0.699c0-0.273,0.361-0.475,0.926-0.517c0.299-0.022,0.614-0.126,0.701-0.23
	c0.087-0.104,0.321-0.291,0.521-0.415c0.2-0.124,0.363-0.303,0.363-0.397c0-0.095,0.149-0.312,0.331-0.483
	c0.236-0.223,0.33-0.449,0.33-0.799c0-0.616,0.424-1.185,0.883-1.185c0.184,0,0.538-0.097,0.787-0.215
	c0.419-0.199,0.472-0.199,0.691,0c0.317,0.287,0.513,0.271,0.614-0.049c0.046-0.146,0.174-0.264,0.285-0.264
	c0.154,0,0.192-0.131,0.165-0.562c-0.058-0.895,0.133-1.554,0.495-1.719c0.174-0.08,0.352-0.285,0.395-0.456
	s0.184-0.385,0.313-0.476c0.249-0.174,0.71-1.146,0.597-1.259c-0.115-0.116,0.218-0.421,0.46-0.421c0.128,0,0.306-0.089,0.396-0.197
	c0.099-0.119,0.28-0.167,0.459-0.123c0.278,0.07,0.301,0.023,0.372-0.758c0.041-0.458,0.14-0.854,0.218-0.88
	c0.251-0.084,0.151-0.259-0.198-0.347c-0.427-0.107-0.352-0.392,0.119-0.448c0.194-0.023,0.354-0.101,0.354-0.172
	s0.114-0.367,0.255-0.658s0.293-0.699,0.338-0.908c0.094-0.424,0.38-0.595,0.698-0.417c0.142,0.079,0.275,0.054,0.406-0.078
	c0.282-0.282,0.95-0.117,1.309,0.324l0.295,0.363l0.196-0.281c0.225-0.32,0.74-0.46,1.052-0.286c0.162,0.09,0.242,0.039,0.34-0.219
	c0.071-0.186,0.189-0.338,0.264-0.338c0.184,0,0.173-0.703-0.013-0.889c-0.098-0.098-0.256-0.108-0.459-0.031
	c-0.171,0.065-0.58,0.112-0.909,0.105c-0.522-0.01-0.599-0.048-0.599-0.298c0-0.217,0.12-0.321,0.496-0.431
	c0.272-0.08,0.687-0.224,0.921-0.319c0.388-0.159,0.452-0.148,0.739,0.121c0.309,0.291,0.32,0.292,0.834,0.061
	c0.287-0.129,0.861-0.575,1.278-0.992c0.416-0.417,0.92-0.796,1.12-0.844c0.356-0.084,0.958-0.536,0.958-0.72
	c0-0.052-0.119-0.125-0.265-0.163c-0.175-0.046-0.265-0.18-0.265-0.398c0-0.547,0.912-0.627,1.479-0.13
	c0.287,0.252,0.449,0.144,0.552-0.369c0.052-0.258,0.182-0.437,0.349-0.48c0.146-0.039,0.265-0.152,0.265-0.252
	s0.056-0.183,0.124-0.183s0.144-0.223,0.166-0.496c0.032-0.398,0.1-0.504,0.338-0.538c0.213-0.03,0.298-0.131,0.298-0.356
	c0-0.172,0.067-0.355,0.15-0.406c0.102-0.062,0.062-0.162-0.122-0.305c-0.149-0.117-0.289-0.332-0.31-0.477
	c-0.036-0.253,0.528-1.281,0.794-1.444c0.204-0.126,1.471,0.195,1.471,0.373c0,0.194-0.684,0.874-0.879,0.874
	c-0.165,0-0.458,0.602-0.347,0.714c0.044,0.043,0.403,0.079,0.8,0.079c0.667,0,0.757-0.038,1.201-0.515
	c0.265-0.283,0.614-0.555,0.778-0.604c0.353-0.105,0.377-0.293,0.081-0.62c-0.32-0.354-0.014-1.357,0.571-1.87
	c0.273-0.24,0.438-0.507,0.438-0.71c0-0.507,0.237-0.837,0.604-0.837c0.198,0,0.359-0.092,0.402-0.231
	c0.075-0.237,0.28-0.684,0.513-1.114c0.145-0.268,0.402-0.317,0.535-0.101c0.048,0.077,0.241,0.199,0.43,0.271
	c0.275,0.104,0.416,0.076,0.709-0.14c0.202-0.149,0.403-0.271,0.448-0.271s0.252-0.171,0.461-0.379
	c0.354-0.354,0.369-0.412,0.23-0.865c-0.147-0.482-0.145-0.489,0.631-1.272c0.428-0.433,0.864-0.773,0.969-0.755
	c0.108,0.019,0.245-0.137,0.319-0.364c0.188-0.569,0.31-0.685,0.804-0.765c0.294-0.048,0.694-0.315,1.214-0.811
	c0.835-0.795,0.935-0.837,1.323-0.553c0.232,0.17,0.239,0.229,0.076,0.694c-0.099,0.279-0.361,0.7-0.584,0.936
	c-0.224,0.235-0.371,0.462-0.329,0.504c0.042,0.042,0.033,0.236-0.02,0.432c-0.075,0.279-0.175,0.355-0.47,0.355
	c-0.34,0-0.394,0.065-0.572,0.707c-0.152,0.544-0.161,0.729-0.038,0.805c0.285,0.176,1.472-0.228,1.9-0.648
	c0.48-0.47,0.73-0.499,1.19-0.137c0.342,0.269,0.626,0.344,0.623,0.165c-0.005-0.2-0.204-0.396-0.494-0.487
	c-0.634-0.198-0.235-0.921,0.583-1.059c0.516-0.087,0.575-0.062,1.067,0.45c0.359,0.374,0.59,0.516,0.742,0.457
	c0.122-0.047,0.296-0.024,0.386,0.05s0.342,0.155,0.561,0.18c0.365,0.041,0.394,0.081,0.357,0.507
	c-0.021,0.254-0.102,0.622-0.177,0.817c-0.228,0.581,0.007,0.806,1.03,0.994c0.656,0.121,0.969,0.249,1.14,0.467
	c0.13,0.166,0.354,0.428,0.496,0.584c0.144,0.156,0.262,0.364,0.265,0.463c0.01,0.391,0.503,1.594,0.771,1.878
	c0.397,0.423,0.369,0.748-0.064,0.748c-0.334,0-0.345,0.021-0.259,0.556c0.204,1.277,0.707,1.546,1.422,0.762
	c0.419-0.458,0.797-0.5,1.168-0.128c0.145,0.146,0.356,0.264,0.469,0.264c0.345,0,0.985,0.392,0.985,0.603
	c0,0.11-0.089,0.233-0.197,0.275c-0.109,0.042-0.166,0.127-0.128,0.19c0.039,0.062-0.058,0.365-0.215,0.673l-0.285,0.56l0.354,0.283
	c0.505,0.403,0.571,1.2,0.129,1.548c-0.439,0.346-0.409,0.704,0.072,0.872c0.309,0.108,0.393,0.216,0.394,0.509
	c0.005,1.237,0.276,1.546,1.013,1.149c0.247-0.133,0.45-0.273,0.45-0.312c0.001-0.038,0.153-0.248,0.34-0.466l0.338-0.396
	l-0.061,0.529c-0.033,0.291-0.082,0.608-0.107,0.705c-0.027,0.101,0.243,0.333,0.637,0.547c0.376,0.204,0.655,0.295,0.619,0.201
	c-0.112-0.293,0.177-0.338,0.498-0.078c0.282,0.229,0.292,0.278,0.125,0.592c-0.17,0.317-0.158,0.362,0.168,0.619
	c0.386,0.303,0.462,0.794,0.163,1.042c-0.104,0.086-0.311,0.403-0.459,0.704c-0.247,0.5-0.254,0.582-0.076,0.938
	c0.259,0.519,0.255,1.261-0.008,1.362c-0.267,0.102-0.591,0.738-0.591,1.159c0,0.407-0.42,0.661-0.927,0.56
	c-0.481-0.096-0.792,0.249-0.792,0.881c0,0.417-0.05,0.495-0.363,0.572c-0.448,0.109-1.081,0.623-1.387,1.125
	c-0.301,0.496-0.102,0.489,0.797-0.026c0.385-0.221,0.754-0.542,0.819-0.715s0.236-0.351,0.38-0.396
	c0.144-0.046,0.615-0.428,1.049-0.849c0.433-0.421,0.966-0.88,1.184-1.019c0.219-0.14,0.728-0.482,1.132-0.762
	c0.584-0.404,0.812-0.492,1.11-0.426c0.24,0.053,0.469,0.012,0.637-0.115c0.511-0.386,0.857-0.196,0.857,0.471
	c0,0.594-1.769,2.354-2.378,2.368c-0.11,0.002-0.438,0.177-0.729,0.389s-0.856,0.577-1.256,0.812
	c-0.4,0.235-0.869,0.536-1.043,0.669c-0.186,0.142-0.536,0.241-0.852,0.241c-0.385,0-0.633,0.09-0.875,0.317
	c-0.507,0.476-1.337,0.873-1.823,0.873c-0.322,0-0.432,0.059-0.432,0.229c0,0.465-0.683,1.583-1.104,1.806
	c-2.112,1.122-2.243,1.215-2.588,1.862c-0.285,0.536-0.439,0.674-0.937,0.839c-1.251,0.415-1.719,0.676-1.719,0.958
	c0,0.443-0.241,0.767-0.773,1.039c-0.275,0.14-0.578,0.349-0.673,0.463c-0.096,0.114-0.302,0.208-0.46,0.208
	c-0.21,0-0.321,0.115-0.414,0.43c-0.085,0.29-0.22,0.443-0.414,0.471c-0.29,0.041-0.662,0.375-0.547,0.491
	c0.062,0.061,2.112-1.006,3.281-1.708c0.327-0.197,0.803-0.449,1.058-0.56s0.655-0.462,0.891-0.779
	c0.338-0.454,0.601-0.639,1.239-0.872c0.598-0.218,0.875-0.403,1.051-0.702c0.834-1.418,1.435-1.794,2.859-1.794
	c0.75,0,0.959-0.06,1.608-0.456c0.411-0.251,0.926-0.499,1.145-0.55c0.654-0.155,1.321-0.667,1.806-1.386
	c0.1-0.147,0.484-0.343,0.88-0.446c0.998-0.261,1.281-0.489,1.477-1.185c0.093-0.333,0.207-0.605,0.254-0.605
	c0.046,0,0.372-0.238,0.724-0.529c0.983-0.813,1.547-0.636,0.801,0.251l-0.34,0.404l0.353,0.462
	c0.521,0.681,1.072,0.746,1.867,0.219c0.459-0.304,0.772-0.411,1.204-0.411c0.445,0,0.747-0.109,1.279-0.462
	c0.384-0.255,0.741-0.463,0.795-0.463s0.249-0.119,0.435-0.265c0.346-0.272,1.021-0.357,1.152-0.145
	c0.04,0.065,0.423,0.088,0.849,0.049c1.002-0.091,1.119,0.09,0.458,0.704c-1.03,0.956-2.29,1.904-2.529,1.904
	c-0.136,0-0.41,0.183-0.609,0.407l-0.362,0.407l0.695-0.077c0.488-0.055,0.727-0.028,0.799,0.089
	c0.079,0.128,0.232,0.101,0.67-0.121c1.216-0.617,1.579-0.735,1.868-0.606c0.226,0.101,0.308,0.068,0.432-0.17
	c0.084-0.162,0.126-0.436,0.094-0.607c-0.125-0.668,1.504-1.701,2.685-1.701c0.237,0,0.463-0.052,0.503-0.116
	s0.534-0.222,1.099-0.351c0.564-0.129,1.149-0.345,1.3-0.479c0.15-0.134,0.34-0.244,0.422-0.244c0.081,0,0.338-0.173,0.57-0.385
	c0.231-0.212,0.675-0.449,0.984-0.527c0.385-0.097,0.757-0.338,1.175-0.762c0.336-0.341,0.923-0.778,1.304-0.972
	s1.046-0.54,1.478-0.77c0.436-0.232,0.982-0.418,1.231-0.418c0.246,0,0.768-0.146,1.159-0.326c0.731-0.334,3.263-0.815,4.824-0.915
	c0.473-0.03,1.027-0.121,1.231-0.2c0.205-0.08,0.542-0.146,0.75-0.146s0.546-0.138,0.752-0.307c0.428-0.351,2.324-1.28,2.612-1.28
	c0.106,0,0.658-0.297,1.226-0.661c0.849-0.544,1.138-0.661,1.63-0.661c0.603,0,1.099-0.237,1.419-0.679
	c0.197-0.271,2.198-0.931,2.487-0.82c0.143,0.055,0.191,0.24,0.17,0.653c-0.017,0.317,0.012,0.618,0.062,0.669
	c0.051,0.051-0.053,0.245-0.231,0.432c-0.178,0.187-0.492,0.662-0.697,1.056c-0.353,0.678-0.444,0.752-1.694,1.377
	c-0.727,0.364-1.341,0.711-1.365,0.771s-0.096,0.11-0.159,0.11s-0.255,0.134-0.426,0.297c-0.172,0.164-0.427,0.368-0.568,0.455
	c-0.247,0.151-0.245,0.158,0.042,0.165c0.166,0.004,0.43-0.146,0.595-0.34c0.399-0.469,1.07-0.738,1.595-0.64
	c0.327,0.061,0.543-0.001,0.947-0.276c0.411-0.279,0.709-0.364,1.383-0.394c0.553-0.024,0.88-0.099,0.916-0.208
	c0.031-0.093,0.201-0.314,0.379-0.492c0.288-0.289,0.399-0.314,1.062-0.246c0.712,0.073,0.771,0.054,1.51-0.479
	c0.47-0.339,0.799-0.684,0.846-0.886c0.042-0.182,0.1-0.405,0.128-0.496c0.03-0.097,0.274-0.166,0.595-0.166
	c0.529,0,0.541,0.01,0.46,0.38c-0.104,0.471,0.17,0.575,1.009,0.384c0.723-0.165,2.551-0.23,2.763-0.099
	c0.182,0.113,0.056,0.391-0.18,0.396c-0.087,0.002-0.331,0.238-0.544,0.525c-0.292,0.396-0.392,0.683-0.409,1.187
	c-0.013,0.366,0.017,0.665,0.065,0.665s0.525-0.149,1.061-0.331c0.534-0.182,1.103-0.331,1.263-0.331s0.744-0.183,1.297-0.406
	c0.553-0.224,1.067-0.368,1.143-0.321c0.075,0.046,0.348,0.015,0.605-0.07c0.402-0.133,0.506-0.122,0.728,0.079
	c0.271,0.246,1.085,0.274,3.229,0.113c0.836-0.062,0.991-0.033,1.601,0.301c0.372,0.204,0.938,0.512,1.257,0.685
	c0.711,0.386,0.821,0.543,0.573,0.816c-0.343,0.379-0.222,0.486,0.473,0.419c0.425-0.041,0.925,0.018,1.383,0.162
	c0.396,0.125,0.832,0.19,0.971,0.146c0.323-0.103,0.685,0.037,0.685,0.264c0,0.098-0.211,0.338-0.469,0.535
	c-0.266,0.203-0.439,0.435-0.401,0.536c0.038,0.099-0.09,0.277-0.291,0.403c-0.197,0.125-0.583,0.422-0.855,0.662
	c-0.345,0.303-0.628,0.436-0.929,0.436c-0.31,0-0.692,0.19-1.354,0.671c-0.954,0.694-1.118,0.931-0.859,1.244
	c0.12,0.144,0.087,0.217-0.151,0.345c-0.378,0.202-0.639,0.458-0.639,0.627c0,0.07-0.209,0.251-0.463,0.401
	c-0.255,0.15-0.463,0.324-0.463,0.386c0,0.062-0.241,0.248-0.536,0.414c-0.635,0.356-1.072,0.294-1.29-0.184
	c-0.188-0.411-0.205-0.411-1.008,0.033c-0.68,0.375-0.922,0.691-0.531,0.691c0.192,0,0.216,0.089,0.148,0.579
	c-0.065,0.475-0.032,0.622,0.186,0.819c0.235,0.212,0.335,0.222,0.857,0.083c0.325-0.087,0.737-0.158,0.916-0.158
	c0.243,0,0.438-0.169,0.778-0.673c0.477-0.707,1.021-1.146,1.855-1.495c0.275-0.115,0.619-0.36,0.765-0.544
	c0.145-0.185,0.48-0.426,0.747-0.538c0.266-0.111,0.762-0.437,1.103-0.724c0.361-0.305,0.757-0.522,0.95-0.522
	c0.184,0,0.37-0.061,0.416-0.134c0.045-0.074,0.14-0.099,0.21-0.056c0.069,0.043-0.065,0.208-0.302,0.368
	c-0.289,0.195-0.46,0.439-0.522,0.749c-0.052,0.253-0.069,0.485-0.039,0.516c0.03,0.03,0.375-0.021,0.765-0.115
	c0.483-0.116,0.784-0.128,0.944-0.039c0.156,0.087,0.386,0.085,0.689-0.009c0.327-0.1,0.522-0.098,0.691,0.008
	c0.134,0.083,0.477,0.115,0.788,0.073c0.442-0.059,0.59-0.024,0.741,0.176c0.502,0.663,0.047,1.176-1.983,2.234
	c-0.404,0.211-0.396,0.547,0.019,0.748c0.201,0.097,0.398,0.295,0.438,0.441c0.04,0.145,0.183,0.427,0.317,0.627
	c0.136,0.199,0.216,0.442,0.179,0.539c-0.037,0.097-0.481,0.459-0.987,0.805c-0.756,0.517-1.07,0.648-1.765,0.737
	c-0.465,0.06-0.935,0.142-1.044,0.182s-0.406,0.102-0.661,0.138c-0.267,0.038-0.574,0.2-0.727,0.383
	c-0.146,0.174-0.518,0.456-0.827,0.626c-0.309,0.169-0.562,0.352-0.562,0.406c0,0.053-0.224,0.232-0.496,0.396
	s-0.675,0.452-0.894,0.639c-0.219,0.187-0.65,0.453-0.959,0.591c-0.308,0.138-0.561,0.331-0.561,0.427
	c0,0.097-0.148,0.272-0.33,0.392c-0.479,0.313-0.43,0.591,0.099,0.55c0.411-0.032,0.432-0.011,0.473,0.483
	c0.029,0.365-0.039,0.625-0.232,0.888l-0.275,0.372l0.406,0.21c0.381,0.197,0.432,0.193,0.827-0.062
	c0.231-0.149,0.663-0.388,0.958-0.531c0.492-0.238,0.593-0.245,1.226-0.078c0.5,0.132,0.819,0.146,1.161,0.051
	c0.26-0.071,0.557-0.098,0.659-0.059c0.245,0.094,0.238,0.533-0.013,0.741c-0.307,0.255-0.235,0.396,0.199,0.396
	c0.375,0,0.396,0.029,0.396,0.537c0,0.518-0.022,0.545-0.657,0.809c-0.361,0.15-0.69,0.37-0.731,0.489
	c-0.196,0.576-1.327,1.47-1.861,1.471c-0.562,0.001-2.082,0.576-2.504,0.946c-0.498,0.437-1.742,0.906-2.404,0.906
	c-0.246,0-0.833,0.097-1.304,0.215c-0.744,0.187-0.881,0.271-1.06,0.646c-0.162,0.341-0.465,0.563-1.452,1.063
	c-0.686,0.348-1.346,0.741-1.467,0.874c-0.121,0.134-0.388,0.243-0.593,0.243c-0.204,0-0.627,0.117-0.938,0.261
	c-1.19,0.548-2.296,0.919-2.55,0.855c-0.201-0.051-0.333,0.056-0.557,0.453c-0.195,0.345-0.492,0.615-0.882,0.804
	c-0.323,0.156-0.676,0.419-0.783,0.583c-0.108,0.164-0.901,0.646-1.764,1.072c-0.861,0.426-1.716,0.877-1.897,1.003
	c-0.487,0.337-1.628,0.977-2.975,1.668c-0.885,0.455-1.335,0.609-1.752,0.604c-0.309-0.004-0.595,0.046-0.636,0.113
	s-0.248,0.12-0.459,0.12c-0.449,0-1.396,0.461-1.5,0.729c-0.039,0.102-0.36,0.332-0.713,0.511c-0.354,0.179-0.719,0.416-0.811,0.527
	c-0.285,0.344-1.371,0.981-2.063,1.212c-0.363,0.121-0.81,0.356-0.992,0.522c-0.389,0.356-1.026,0.693-1.47,0.778
	c-0.499,0.095-0.752,0.222-0.826,0.415c-0.037,0.099-0.354,0.221-0.704,0.271c-0.35,0.051-0.87,0.204-1.156,0.34
	s-0.666,0.248-0.844,0.248s-0.538,0.134-0.801,0.298s-0.895,0.48-1.405,0.704c-0.51,0.223-1.245,0.63-1.634,0.903
	c-0.866,0.608-1.6,0.879-2.317,0.854c-0.467-0.016-0.629,0.06-1.139,0.529c-0.327,0.301-0.634,0.547-0.68,0.547
	c-0.047,0-0.364,0.23-0.705,0.512s-0.778,0.594-0.973,0.694c-0.194,0.101-0.602,0.369-0.905,0.597
	c-0.53,0.398-1.97,0.974-2.435,0.974c-0.123,0-0.259-0.089-0.301-0.198c-0.104-0.27-0.604-0.249-1.28,0.054
	c-0.44,0.197-0.631,0.222-0.873,0.112c-0.236-0.108-0.425-0.09-0.806,0.075c-0.366,0.159-0.829,0.208-1.759,0.186
	c-0.992-0.023-1.334,0.018-1.599,0.191c-0.186,0.121-0.51,0.24-0.722,0.264c-0.335,0.039-0.381,0.094-0.356,0.431
	c0.047,0.643,0.327,0.807,1.292,0.757c0.825-0.042,0.854-0.033,0.938,0.309c0.052,0.205,0.025,0.415-0.062,0.502
	c-0.113,0.113,0.013,0.235,0.499,0.486c0.412,0.212,0.928,0.666,1.405,1.236c0.636,0.758,0.743,0.959,0.68,1.275
	c-0.068,0.341-0.035,0.383,0.36,0.457c0.239,0.045,0.579,0.235,0.754,0.422c0.176,0.187,0.513,0.421,0.749,0.52
	c0.487,0.204,0.555,0.51,0.165,0.753c-0.146,0.091-0.265,0.255-0.265,0.365c0,0.324-0.863,0.927-1.327,0.927
	c-0.382,0-1.123,0.395-1.341,0.714c-0.05,0.072-0.034,0.236,0.034,0.364c0.099,0.184,0.009,0.346-0.428,0.778
	c-1.062,1.052-1.425,1.117-1.761,0.313c-0.176-0.421-0.205-0.436-0.591-0.301c-0.52,0.181-0.636,0.376-0.351,0.586
	c0.172,0.125,0.207,0.275,0.144,0.614c-0.113,0.599,0.221,0.982,0.927,1.065c0.505,0.06,0.545,0.037,0.882-0.507
	c0.275-0.443,0.474-0.602,0.891-0.714c0.295-0.079,0.6-0.261,0.676-0.404s0.235-0.26,0.354-0.26s0.409-0.149,0.647-0.331
	c0.238-0.182,0.601-0.33,0.806-0.328l0.373,0.003l-0.309,0.237c-0.237,0.183-0.298,0.34-0.264,0.691
	c0.039,0.413,0.085,0.458,0.505,0.499c0.255,0.024,0.543,0.11,0.642,0.192c0.098,0.082,0.304,0.167,0.456,0.191
	s0.385,0.139,0.516,0.258c0.132,0.119,0.238,0.175,0.238,0.125c0-0.215,0.554,0.229,0.671,0.539c0.206,0.541,0.021,0.835-0.75,1.188
	c-0.764,0.35-0.871,0.572-0.449,0.933c0.146,0.125,0.265,0.325,0.265,0.445c0,0.121,0.088,0.431,0.196,0.691
	c0.108,0.259,0.165,0.555,0.126,0.657c-0.106,0.279-1.222,0.794-1.485,0.687c-0.124-0.051-0.52-0.115-0.879-0.143
	c-0.522-0.041-0.701,0.002-0.897,0.212c-0.135,0.144-0.304,0.263-0.376,0.263c-0.071,0-0.427,0.234-0.789,0.52
	c-0.361,0.286-0.791,0.561-0.954,0.61c-0.286,0.087-0.877,0.679-0.887,0.889c-0.003,0.056,0.144,0.159,0.325,0.228
	c0.282,0.107,0.331,0.209,0.331,0.697c0,0.314-0.072,0.644-0.161,0.732c-0.125,0.126-0.084,0.237,0.193,0.514
	c0.326,0.326,0.373,0.337,0.591,0.146c0.422-0.371,0.764-0.396,1.159-0.085c0.203,0.16,0.584,0.325,0.847,0.368
	c0.369,0.06,0.488,0.146,0.521,0.38c0.023,0.167-0.036,0.399-0.133,0.516c-0.104,0.127-0.122,0.231-0.043,0.259
	c0.343,0.122,0.457,0.286,0.491,0.709c0.034,0.415-0.003,0.469-0.392,0.584c-0.236,0.069-0.43,0.195-0.43,0.28
	c0,0.084-0.124,0.31-0.274,0.501c-0.251,0.319-0.354,0.348-1.235,0.348c-0.794,0-1.004,0.046-1.201,0.265
	c-0.267,0.294-0.951,0.344-1.851,0.135c-0.688-0.16-1.083-0.053-1.176,0.317c-0.052,0.207-0.245,0.351-0.64,0.475
	c-0.311,0.098-0.743,0.269-0.962,0.379c-0.218,0.11-0.575,0.214-0.793,0.229c-0.514,0.036-1.409,0.173-1.615,0.247
	c-0.089,0.031-0.196,0-0.239-0.069c-0.142-0.228-0.32-0.132-0.409,0.219c-0.056,0.224-0.241,0.409-0.526,0.528
	c-0.242,0.102-0.504,0.303-0.582,0.449c-0.077,0.146-0.244,0.265-0.37,0.265c-0.308,0-2.697,0.935-3.76,1.471
	c-0.272,0.138-0.944,0.154-1.072,0.026c-0.265-0.264-1.673,0.039-1.673,0.359c0,0.07-0.117,0.127-0.26,0.127
	s-0.376,0.125-0.518,0.278c-0.357,0.383-0.902,0.647-1.336,0.647c-0.2,0-0.515,0.119-0.699,0.265
	c-0.186,0.146-0.509,0.264-0.719,0.264c-0.211,0-0.447,0.065-0.527,0.145c-0.079,0.079-0.611,0.163-1.183,0.187
	c-1.166,0.048-2.38,0.374-3.128,0.839c-0.486,0.303-1.018,0.338-1.548,0.104c-0.117-0.052-0.332,0.034-0.528,0.211
	c-0.182,0.165-0.599,0.472-0.926,0.683s-0.761,0.497-0.962,0.635c-0.485,0.331-1.666,0.478-1.821,0.227
	c-0.086-0.14-0.141-0.105-0.235,0.146c-0.068,0.18-0.101,0.367-0.072,0.416c0.029,0.049,0.866,0.085,1.86,0.081
	c1.763-0.008,1.814,0,2.081,0.317c0.285,0.341,1.506,0.902,1.961,0.902c0.38,0,1.026,0.438,1.485,1.008
	c0.219,0.271,0.571,0.695,0.785,0.944c0.336,0.392,0.365,0.487,0.222,0.717c-0.191,0.307-0.216,0.275,0.382,0.502
	c0.255,0.097,0.611,0.312,0.793,0.477s0.494,0.363,0.694,0.438c0.434,0.164,0.487,0.598,0.1,0.805
	c-0.146,0.078-0.265,0.249-0.265,0.381c0,0.131-0.15,0.307-0.334,0.391c-0.185,0.084-0.37,0.243-0.412,0.354
	c-0.058,0.15-0.19,0.182-0.508,0.122c-0.338-0.063-0.547-0.001-0.979,0.295c-0.468,0.319-0.539,0.429-0.483,0.739
	c0.047,0.267-0.006,0.408-0.196,0.527c-0.144,0.09-0.262,0.238-0.262,0.33s-0.05,0.166-0.111,0.166s-0.284,0.15-0.496,0.334
	c-0.493,0.428-0.86,0.373-1.111-0.166c-0.214-0.46-0.329-0.502-0.851-0.304c-0.331,0.126-0.48,0.532-0.197,0.532
	c0.079,0,0.132,0.194,0.119,0.431c-0.057,1.028,0.115,1.249,0.987,1.267c0.44,0.009,0.603-0.039,0.603-0.177
	c0-0.305,0.904-1.123,1.24-1.123c0.168,0,0.412-0.118,0.542-0.262s0.362-0.3,0.517-0.348c0.153-0.048,0.451-0.208,0.661-0.355
	c0.21-0.148,0.552-0.274,0.761-0.28c0.436-0.013,0.504,0.123,0.114,0.226c-0.193,0.05-0.265,0.18-0.265,0.478
	c0,0.226-0.009,0.454-0.02,0.509s0.201,0.135,0.47,0.179c0.269,0.043,0.557,0.147,0.641,0.231c0.084,0.083,0.259,0.151,0.39,0.151
	s0.343,0.104,0.47,0.231c0.127,0.128,0.347,0.231,0.488,0.231c0.147,0,0.354,0.17,0.483,0.396c0.33,0.581,0.139,0.926-0.736,1.326
	c-0.787,0.36-0.881,0.547-0.467,0.922c0.146,0.132,0.265,0.342,0.265,0.467c0,0.126,0.089,0.441,0.198,0.703
	c0.108,0.261,0.198,0.505,0.198,0.543c0,0.037-0.226,0.218-0.501,0.4c-0.548,0.362-0.747,0.385-1.979,0.229
	c-0.454-0.058-0.826-0.062-0.826-0.009c0,0.149-2.187,1.566-2.419,1.566c-0.207,0-0.754,0.651-0.754,0.897
	c0,0.071,0.118,0.161,0.264,0.198c0.214,0.057,0.265,0.181,0.265,0.65c0,0.319-0.068,0.649-0.151,0.733
	c-0.114,0.114-0.098,0.234,0.068,0.489c0.251,0.382,0.435,0.413,0.803,0.135c0.369-0.279,0.716-0.241,1.209,0.136
	c0.238,0.182,0.585,0.331,0.769,0.331c0.445,0,0.66,0.396,0.409,0.754c-0.167,0.239-0.152,0.295,0.147,0.556
	c0.481,0.419,0.395,0.951-0.18,1.1c-0.236,0.061-0.43,0.187-0.43,0.28s-0.164,0.325-0.363,0.515
	c-0.324,0.309-0.468,0.346-1.332,0.344c-0.771-0.001-1.004,0.046-1.138,0.229c-0.189,0.259-0.785,0.292-2.158,0.122
	c-0.689-0.086-0.826-0.07-0.826,0.094c0,0.295-0.387,0.581-1.113,0.825c-0.358,0.12-0.715,0.26-0.794,0.311
	c-0.288,0.188-2.516,0.403-2.691,0.26c-0.191-0.156-0.186-0.161-0.397,0.333c-0.104,0.241-0.289,0.393-0.541,0.443
	c-0.216,0.043-0.44,0.203-0.516,0.367c-0.094,0.205-0.333,0.337-0.814,0.448c-0.376,0.087-1.021,0.312-1.437,0.5
	c-2.207,1.001-2.812,1.118-4.005,0.773c-0.115-0.033-0.431,0.089-0.7,0.272c-0.27,0.183-0.573,0.332-0.675,0.332
	c-0.34,0-0.344,0.251-0.013,0.775c0.181,0.286,0.378,0.541,0.439,0.566s0.279,0.27,0.484,0.541c0.205,0.272,0.687,0.674,1.069,0.894
	c0.837,0.479,1.16,1.051,0.812,1.436c-0.342,0.378-0.261,0.765,0.24,1.147c0.393,0.299,0.616,0.355,1.591,0.402
	c1.189,0.056,1.813,0.272,2.048,0.71c0.074,0.14,0.136,0.584,0.136,0.986c0,0.48,0.093,0.91,0.271,1.251
	c0.148,0.285,0.304,0.748,0.345,1.028c0.084,0.581,0.331,1.237,0.466,1.237c0.05,0,0.303,0.2,0.562,0.445
	c0.627,0.592,0.644,1.066,0.043,1.214c-0.532,0.13-1.057,0.091-1.367-0.104c-0.08-0.049-0.823-0.058-1.653-0.018
	s-1.657,0.067-1.839,0.062s-0.592-0.016-0.911-0.021c-0.318-0.006-0.974-0.149-1.454-0.319c-0.481-0.17-1.067-0.349-1.303-0.397
	s-0.459-0.139-0.497-0.2s-0.444-0.294-0.902-0.518s-1.127-0.614-1.485-0.87c-0.359-0.255-0.778-0.464-0.933-0.464
	s-0.432-0.119-0.616-0.264c-0.186-0.146-0.396-0.265-0.468-0.265s-0.447-0.238-0.835-0.529c-0.425-0.318-0.849-0.528-1.068-0.528
	c-0.2,0-0.678-0.197-1.062-0.439c-0.957-0.603-1.528-0.812-2.079-0.766c-0.848,0.073-0.868,0.418-0.079,1.344
	c0.649,0.76,0.67,0.975,0.19,2.043c-0.337,0.751-0.7,1.124-1.097,1.124c-0.188,0-0.343,0.045-0.343,0.1
	c0,0.15-0.776,0.464-0.967,0.391c-0.258-0.1-0.702,0.336-0.786,0.77c-0.087,0.447,0.486,1.824,0.919,2.21
	c0.143,0.127,0.541,0.284,0.885,0.348c0.657,0.123,0.899,0.34,1.161,1.037c0.189,0.501,0.463,0.643,0.758,0.391
	c0.265-0.226,0.625-0.365,1.138-0.439c0.294-0.042,0.438,0.012,0.56,0.208c0.221,0.357,0.065,1.085-0.249,1.167
	c-0.135,0.035-0.244,0.117-0.244,0.181c0,0.064-0.119,0.117-0.265,0.117s-0.265,0.06-0.265,0.132c0,0.073-0.174,0.133-0.386,0.133
	c-0.316,0-0.401,0.067-0.469,0.373c-0.045,0.206-0.019,0.541,0.059,0.744c0.218,0.573,0.312,2.205,0.151,2.618
	c-0.078,0.199-0.229,0.363-0.337,0.363s-0.48,0.152-0.829,0.339c-0.565,0.303-0.76,0.335-1.76,0.298l-1.123-0.042l-0.007,0.339
	c-0.013,0.62-0.328,1.182-0.663,1.182c-0.169,0-0.385,0.104-0.479,0.231c-0.096,0.127-0.471,0.469-0.834,0.758
	c-1.126,0.896-1.159,0.962-1.141,2.237c0.011,0.696-0.036,0.865-0.321,1.174c-0.184,0.197-0.451,0.367-0.593,0.376
	c-0.366,0.023-0.438,0.041-0.611,0.151c-0.084,0.054-0.441,0.096-0.793,0.094c-0.738-0.005-1.196,0.053-1.308,0.164
	c-0.043,0.043-0.238-0.005-0.433-0.106c-0.195-0.102-0.459-0.186-0.588-0.186c-0.275-0.001-0.311,0.015-1.849,0.84
	c-0.273,0.146-0.496,0.314-0.496,0.373c0,0.06-0.179,0.108-0.396,0.108c-0.219,0-0.396,0.062-0.396,0.137
	c0,0.261,0.635,1.386,1.042,1.847c0.677,0.765,0.687,1.057,0.043,1.251c-0.251,0.076-0.452-0.056-1.186-0.778
	c-1.359-1.34-1.598-1.31-1.943,0.245c-0.118,0.533-0.317,1.062-0.441,1.174c-0.268,0.243-2.084,0.396-2.438,0.207
	c-0.128-0.068-0.346-0.346-0.483-0.616c-0.41-0.803-0.7-0.994-1.361-0.894c-0.313,0.048-0.689,0.139-0.835,0.201
	c-0.246,0.106-0.888,0.284-1.189,0.329c-0.177,0.026-0.813,0.274-1.685,0.657c-0.584,0.257-0.733,0.66-0.515,1.391
	c0.082,0.274,0.149,0.618,0.149,0.764c0,0.426-0.599,0.918-1.224,1.006c-0.713,0.1-1.146-0.19-1.346-0.9
	c-0.079-0.281-0.218-0.536-0.31-0.566c-0.128-0.043-0.146,0.162-0.077,0.902l0.089,0.958l-0.446-0.09
	c-0.246-0.049-0.488-0.162-0.539-0.252c-0.552-0.975-1.473-1.813-1.992-1.814c-0.14-0.001-0.323,0.223-0.484,0.586
	c-0.188,0.423-0.447,0.709-0.934,1.024c-0.584,0.379-0.67,0.49-0.64,0.824c0.032,0.347,0.123,0.416,0.895,0.688
	c0.473,0.167,1.05,0.306,1.281,0.309c0.232,0.003,0.456,0.06,0.497,0.126s0.335,0.247,0.654,0.401
	c0.46,0.223,0.592,0.363,0.639,0.68c0.132,0.896-1.214,0.888-3.058-0.017c-0.32-0.156-0.886-0.31-1.257-0.34
	c-0.37-0.03-0.882-0.08-1.137-0.111c-1.908-0.231-1.999-0.227-2.33,0.13c-0.173,0.188-0.314,0.401-0.314,0.478
	c0,0.264-0.562,0.926-0.908,1.069c-0.379,0.157-0.535,0.149-1.059-0.05c-0.545-0.207-2.767-0.261-3.101-0.074
	c-0.36,0.2-0.882,0.729-0.882,0.892c0,0.068-0.218,0.215-0.485,0.326c-0.44,0.185-0.541,0.183-1.091-0.02
	c-0.333-0.122-0.889-0.454-1.234-0.737c-0.346-0.283-0.68-0.483-0.743-0.444c-0.153,0.095-0.454-0.263-0.8-0.952
	c-0.321-0.639-0.821-0.917-2.258-1.259c-0.808-0.192-0.875-0.19-1.105,0.034c-0.162,0.158-0.296,0.594-0.396,1.289
	c-0.141,0.978-0.388,1.493-0.716,1.493c-0.254,0-0.461-0.79-0.633-2.413c-0.098-0.927-0.232-1.782-0.298-1.9
	c-0.089-0.159-0.355-0.226-1.012-0.255c-0.63-0.028-0.975-0.11-1.175-0.282c-0.156-0.133-0.581-0.391-0.945-0.571
	c-0.363-0.182-0.896-0.508-1.185-0.727c-0.288-0.218-0.645-0.462-0.793-0.542c-0.149-0.081-0.539-0.291-0.866-0.469
	c-0.371-0.2-0.696-0.29-0.86-0.237c-0.145,0.047-0.397,0.131-0.561,0.187c-0.343,0.116-0.39,0.489-0.093,0.736
	c0.208,0.173,0.853,1.435,0.853,1.669c0,0.07-0.179,0.299-0.397,0.509c-0.374,0.357-0.458,0.379-1.381,0.35
	c-0.872-0.028-0.999-0.001-1.127,0.238c-0.08,0.148-0.208,0.271-0.285,0.271c-0.078,0-0.388,0.254-0.689,0.564
	c-0.302,0.311-0.708,0.646-0.901,0.744c-0.194,0.098-0.38,0.275-0.415,0.394c-0.035,0.118-0.105,0.319-0.158,0.446
	c-0.073,0.178-0.03,0.231,0.187,0.231c0.357,0,0.588,0.56,0.488,1.184c-0.05,0.317-0.007,0.529,0.142,0.694
	c0.234,0.259,0.571,0.318,0.571,0.102c0-0.074,0.155-0.194,0.344-0.267c0.273-0.104,0.435-0.075,0.776,0.136
	c0.237,0.146,0.581,0.267,0.763,0.267c0.454,0,0.671,0.299,0.566,0.776c-0.069,0.315-0.036,0.407,0.172,0.473
	c0.239,0.076,0.413,0.427,0.417,0.841c0.001,0.095-0.177,0.234-0.395,0.311c-0.222,0.077-0.398,0.234-0.399,0.356
	c-0.001,0.12-0.113,0.362-0.249,0.537c-0.2,0.261-0.383,0.326-0.994,0.357c-0.577,0.028-0.842,0.115-1.153,0.377
	c-0.381,0.321-0.459,0.335-1.43,0.254l-1.026-0.086l-0.137,0.392c-0.101,0.29-0.326,0.481-0.866,0.737
	c-0.401,0.189-0.77,0.41-0.819,0.49s-0.207,0.108-0.35,0.063c-0.143-0.046-0.336-0.02-0.429,0.058
	c-0.093,0.077-0.491,0.166-0.885,0.196c-0.646,0.051-0.731,0.094-0.875,0.448c-0.088,0.216-0.287,0.426-0.441,0.466
	c-0.155,0.041-0.312,0.191-0.349,0.335c-0.042,0.161-0.303,0.349-0.685,0.491c-0.339,0.127-0.872,0.4-1.185,0.608
	c-0.312,0.207-0.601,0.378-0.641,0.378s-0.23,0.108-0.423,0.242c-0.545,0.377-1.484,0.706-1.654,0.58
	c-0.083-0.062-0.344-0.108-0.58-0.104c-0.434,0.008-0.797,0.242-1.805,1.165c-0.333,0.305-0.673,0.496-0.883,0.496
	c-0.193,0-0.477,0.144-0.652,0.33c-0.171,0.182-0.445,0.331-0.609,0.331c-0.165,0-0.504,0.134-0.754,0.297
	c-0.396,0.259-0.447,0.353-0.391,0.714c0.059,0.374-0.001,0.467-0.604,0.926c-0.368,0.28-0.704,0.607-0.747,0.729
	c-0.198,0.554-2.511,0.935-3.737,0.615c-1.07-0.278-1.229-0.279-1.528-0.008c-0.688,0.626-1.561,0.764-1.816,0.287
	c-0.124-0.231-0.227-0.261-0.652-0.188c-0.326,0.055-0.539,0.03-0.6-0.068c-0.059-0.096-0.26-0.122-0.531-0.071
	c-0.315,0.059-0.576,0.004-0.935-0.198c-0.389-0.219-0.622-0.261-1.065-0.194c-0.312,0.047-0.602,0.141-0.644,0.208
	c-0.09,0.147,0.314,1.045,0.482,1.068c0.064,0.009,0.177,0.031,0.25,0.05c0.073,0.018,0.217,0.04,0.321,0.049
	c0.303,0.027,0.604,0.405,0.604,0.761c0,0.248-0.109,0.373-0.452,0.517c-0.249,0.104-0.661,0.41-0.917,0.682
	c-0.453,0.48-0.472,0.487-0.729,0.255c-0.327-0.295-0.973-0.188-1.491,0.246c-0.218,0.183-0.616,0.325-1.057,0.377
	c-0.389,0.046-0.728,0.145-0.752,0.219c-0.024,0.074-0.119,0.135-0.209,0.135s-0.428,0.237-0.75,0.526
	c-0.321,0.29-0.636,0.528-0.7,0.529s-0.079,0.236-0.033,0.522c0.046,0.291,0.027,0.557-0.045,0.601
	c-0.07,0.043-0.094,0.25-0.052,0.46c0.067,0.336,0.013,0.421-0.464,0.722c-0.297,0.188-0.663,0.342-0.812,0.342
	c-0.337,0-0.473,0.321-0.297,0.703c0.074,0.158,0.199,0.452,0.279,0.652c0.08,0.199,0.209,0.363,0.286,0.363
	c0.215,0,0.659,1.151,0.659,1.709c0,0.43-0.083,0.566-0.618,1.014c-0.877,0.732-0.968,0.837-0.968,1.105
	c0,0.131-0.301,0.555-0.669,0.94c-0.567,0.595-0.667,0.774-0.648,1.173c0.037,0.822,0,1.042-0.207,1.25
	c-0.394,0.394-0.778,0.064-1.387-1.184c-0.244-0.501-0.716-1.122-1.256-1.653c-0.476-0.468-0.955-1.057-1.065-1.309
	s-0.243-0.49-0.297-0.529c-0.202-0.147-0.509-0.759-0.758-1.508c-0.185-0.555-0.345-0.809-0.564-0.893
	c-0.477-0.181-0.818-0.138-0.914,0.115c-0.117,0.311-0.45,0.548-0.658,0.468c-0.094-0.036-0.207,0.029-0.251,0.146
	c-0.045,0.118-0.231,0.212-0.42,0.212c-0.187,0-0.433,0.084-0.548,0.188c-0.235,0.211-1.728,0.738-2.09,0.738
	c-0.13,0-0.309,0.115-0.397,0.256c-0.199,0.319-0.853,0.623-1.582,0.736c-0.305,0.048-0.625,0.171-0.71,0.274
	c-0.318,0.383-0.496,0.213-0.466-0.446c0.016-0.348,0.069-0.699,0.119-0.779c0.093-0.15-0.175-0.306-0.529-0.306
	c-0.111,0-0.339,0.132-0.507,0.293c-0.227,0.219-0.435,0.284-0.812,0.257c-0.418-0.03-0.583,0.037-0.937,0.384
	c-0.236,0.231-0.429,0.468-0.429,0.525c0,0.059-0.21,0.236-0.467,0.395c-0.365,0.226-0.507,0.255-0.653,0.134
	c-0.103-0.086-0.306-0.136-0.453-0.112c-0.147,0.023-0.348-0.068-0.448-0.206c-0.212-0.29-0.459-0.196-1.351,0.511
	c-0.291,0.231-0.752,0.522-1.024,0.646c-0.273,0.125-0.496,0.258-0.496,0.295s0.055,0.034,0.121-0.007
	c0.164-0.102,0.837,0.163,0.755,0.297c-0.036,0.058-0.014,0.188,0.048,0.29c0.091,0.147,0.182,0.153,0.45,0.031
	c0.209-0.095,0.365-0.104,0.414-0.025c0.043,0.07,0.185,0.128,0.315,0.128c0.256,0,0.674,0.392,0.674,0.633
	c0,0.229-1.99,1.138-2.492,1.138c-0.307,0.001-0.512-0.092-0.671-0.303l-0.229-0.303l-0.222,0.338
	c-0.122,0.187-0.222,0.389-0.222,0.45c0,0.149,0.944,0.559,1.29,0.559c0.359,0,0.425,0.231,0.198,0.687
	c-0.101,0.202-0.146,0.429-0.1,0.503c0.169,0.273-0.333,0.281-0.712,0.011c-0.333-0.236-0.442-0.255-0.733-0.122
	c-0.295,0.134-0.384,0.116-0.647-0.131c-0.376-0.354-0.668-0.363-0.977-0.033c-0.141,0.15-0.478,0.277-0.832,0.312
	c-0.327,0.032-0.684,0.082-0.793,0.11c-0.134,0.035-0.195-0.044-0.188-0.246c0.009-0.265-0.053-0.298-0.569-0.298
	c-0.318,0-0.763-0.095-0.989-0.212c-0.404-0.208-0.416-0.205-0.8,0.206c-0.489,0.523-1.064,0.526-1.136,0.006
	c-0.025-0.182-0.125-0.375-0.221-0.43c-0.096-0.056-0.213-0.272-0.259-0.482c-0.046-0.21-0.2-0.487-0.341-0.615
	s-0.257-0.306-0.257-0.396c0-0.259-0.292-0.307-1.066-0.175c-1.218,0.207-2.905,0.772-4.289,1.437
	c-2.25,1.079-3.368,1.587-3.491,1.587c-0.065,0-0.242,0.208-0.392,0.463c-0.214,0.363-0.357,0.463-0.665,0.463
	c-0.473,0-0.735,0.239-0.939,0.859c-0.235,0.713-0.857,0.912-1.791,0.575c-0.36-0.131-0.508-0.111-1.01,0.132
	c-0.323,0.156-0.719,0.284-0.878,0.284c-0.159,0-0.394,0.128-0.52,0.285c-0.506,0.625-0.708,0.773-1.057,0.775
	c-0.505,0.002-0.643,0.125-0.741,0.659c-0.056,0.307-0.238,0.585-0.541,0.826C33.296,258.797,33.098,258.84,32.993,258.565z
	 M32.09,249.944c0.25-0.19,0.454-0.402,0.454-0.472c0-0.215-0.576,0.043-0.984,0.439c-0.31,0.302-0.342,0.379-0.156,0.379
	C31.532,250.291,31.84,250.135,32.09,249.944z M33.744,248.504c0.223-0.049,0.564-0.172,0.759-0.274
	c0.195-0.102,0.438-0.185,0.541-0.186c0.24-0.001,1.558-0.621,2.034-0.957c0.27-0.189,0.466-0.232,0.728-0.16
	c0.197,0.055,0.495,0.086,0.663,0.068c0.167-0.017,0.39,0.041,0.495,0.128c0.153,0.127,0.283,0.089,0.654-0.194
	c0.255-0.194,0.463-0.466,0.463-0.604s0.059-0.286,0.132-0.331s0.132-0.286,0.132-0.534c0-0.375-0.058-0.468-0.336-0.537
	c-0.219-0.056-0.416-0.012-0.566,0.125c-0.138,0.124-0.349,0.178-0.522,0.133c-0.217-0.057-0.413,0.046-0.769,0.401
	c-0.501,0.501-0.848,0.615-0.848,0.279c0-0.331-0.391-0.224-0.961,0.265c-0.297,0.255-0.612,0.463-0.699,0.463
	c-0.087,0-0.232,0.089-0.323,0.198c-0.09,0.109-0.251,0.198-0.356,0.198c-0.261,0-2.032,1.731-1.933,1.891
	c0.043,0.07,0.129,0.035,0.193-0.078C33.288,248.685,33.521,248.553,33.744,248.504z M71.596,243.749
	c0.08-0.208-0.223-0.359-0.504-0.251c-0.225,0.086-0.39,0.517-0.271,0.708C70.917,244.361,71.491,244.022,71.596,243.749z
	 M66.54,243.374c0.202-0.159,0.371-0.396,0.375-0.527c0.011-0.355,0.832-0.642,1.775-0.619c1.522,0.035,1.575,0.022,2.198-0.531
	c0.605-0.537,0.846-0.634,0.992-0.396c0.168,0.271,0.496,0.113,1.124-0.541c0.355-0.371,0.85-0.783,1.1-0.917
	c0.453-0.243,0.455-0.242,0.726,0.068c0.315,0.362,0.725,0.319,0.91-0.094c0.115-0.258,0.039-0.927-0.24-2.097
	c-0.105-0.44-0.143-0.47-0.543-0.417c-0.562,0.073-1.555,0.541-1.555,0.733c0,0.247-0.951,1.016-1.257,1.016
	c-0.156,0-0.422,0.147-0.59,0.327c-0.169,0.18-0.521,0.396-0.784,0.483c-0.631,0.207-1.437,0.622-1.948,1.004
	c-0.363,0.271-0.522,0.302-1.286,0.246c-0.488-0.035-0.906-0.007-0.95,0.064c-0.134,0.217-1.091,0.652-1.435,0.652
	c-0.595,0-0.588,0.525,0.019,1.499c0.272,0.437,0.364,0.496,0.66,0.422C66.018,243.702,66.337,243.533,66.54,243.374z
	 M74.687,243.002c0.106-0.105,0.261-0.109,0.542-0.012c0.35,0.122,0.433,0.096,0.755-0.24c0.32-0.335,0.352-0.443,0.271-0.943
	c-0.049-0.311-0.158-0.607-0.242-0.659c-0.247-0.152-0.894,0.395-0.894,0.757c0,0.354-0.355,0.451-0.478,0.131
	c-0.058-0.15-0.14-0.16-0.39-0.046c-0.427,0.194-0.535,0.589-0.248,0.906C74.267,243.186,74.471,243.218,74.687,243.002z
	 M49.237,240.964c0.345-0.05,0.627-0.158,0.626-0.241c0-0.082-0.242-0.251-0.536-0.375c-0.579-0.242-0.556-0.252-1.146,0.472
	c-0.125,0.152-0.26,0.171-0.581,0.079c-0.23-0.065-0.473-0.086-0.539-0.046c-0.247,0.152-0.003,0.378,0.564,0.523
	c0.513,0.131,0.61,0.12,0.784-0.086C48.52,241.161,48.892,241.014,49.237,240.964z M68.376,233.824c0-0.161-0.053-0.174-0.264-0.061
	c-0.146,0.077-0.265,0.169-0.265,0.202c0,0.034,0.119,0.062,0.265,0.062C68.261,234.027,68.376,233.939,68.376,233.824z
	 M87.671,232.895c0.16-0.057,0.157-0.098-0.018-0.273c-0.161-0.16-0.266-0.174-0.478-0.061c-0.149,0.08-0.394,0.145-0.543,0.145
	c-0.261,0-0.803,0.365-0.803,0.541C85.83,233.322,87.195,233.062,87.671,232.895z M93.084,229.546
	c-0.358-0.453-0.644-0.525-0.644-0.162c0,0.285,0.215,0.492,0.595,0.572C93.424,230.039,93.43,229.983,93.084,229.546z
	 M102.806,227.34c0.044-0.115,0.08-0.335,0.08-0.489c0-0.364-0.216-0.149-0.335,0.335
	C102.455,227.574,102.667,227.702,102.806,227.34z M102.966,225.733c-0.044-0.044-0.075,0.034-0.069,0.174
	c0.006,0.154,0.038,0.186,0.08,0.08C103.015,225.892,103.01,225.777,102.966,225.733z M190.681,172.489
	c0-0.03,0.041-0.164,0.091-0.297c0.08-0.214,0.064-0.221-0.132-0.062c-0.248,0.202-0.295,0.414-0.091,0.414
	C190.621,172.545,190.681,172.52,190.681,172.489z M205.093,139.994c0-0.25-0.552-0.769-0.816-0.769
	c-0.302,0-0.321,0.43-0.033,0.718C204.485,140.186,205.093,140.222,205.093,139.994z M215.396,138.245
	c0.085-0.103,0.189-0.401,0.232-0.664c0.042-0.263,0.129-0.51,0.191-0.549c0.258-0.159,0.104-0.666-0.27-0.886
	c-0.469-0.277-0.768-0.285-1.364-0.036c-0.252,0.105-0.573,0.161-0.715,0.124c-0.158-0.041-0.354,0.039-0.505,0.206
	c-0.315,0.349-0.44,0.343-1.238-0.058c-0.91-0.457-1.256-0.431-1.705,0.132c-0.203,0.254-0.467,0.463-0.586,0.463
	c-0.12,0-0.255,0.098-0.301,0.217c-0.073,0.19,0.004,0.207,0.622,0.134c0.56-0.065,0.813-0.028,1.222,0.18
	c0.283,0.145,0.629,0.263,0.768,0.263c0.311,0,1.878-0.494,2.357-0.743c0.193-0.101,0.438-0.15,0.544-0.109
	c0.292,0.112,0.495,0.671,0.406,1.116C214.971,138.458,215.135,138.56,215.396,138.245z M208.795,131.292
	c0-0.073-0.104-0.131-0.231-0.13c-0.197,0.002-0.202,0.021-0.033,0.13C208.78,131.453,208.795,131.453,208.795,131.292z
	 M238.843,103.861c0.604-0.102,0.648-0.382,0.105-0.663c-0.577-0.298-1.052-0.26-1.183,0.094c-0.133,0.359,0.096,0.783,0.381,0.707
	C238.257,103.969,238.569,103.908,238.843,103.861z M247.032,98.567c0.841-0.341,2.159-0.455,2.246-0.193
	c0.063,0.191,0.826-0.098,2.411-0.916c0.721-0.372,1.365-0.676,1.431-0.676s0.379-0.179,0.696-0.397
	c0.317-0.218,0.72-0.396,0.894-0.396c0.439,0,0.669,0.465,0.506,1.025c-0.105,0.364-0.091,0.43,0.098,0.429
	c0.24-0.001,0.731-0.658,0.887-1.189c0.054-0.182,0.208-0.489,0.345-0.682c0.4-0.569,0.212-0.772-0.716-0.772
	c-0.646,0-0.938,0.077-1.501,0.395c-0.385,0.217-0.966,0.455-1.291,0.527c-0.361,0.081-0.787,0.312-1.095,0.594l-0.503,0.461
	l-1.326-0.081c-1.183-0.073-1.386-0.051-1.871,0.196c-0.299,0.153-0.734,0.518-0.967,0.812c-0.233,0.293-0.562,0.569-0.732,0.612
	c-0.171,0.042-0.413,0.191-0.538,0.33c-0.212,0.233-0.212,0.252-0.008,0.252C246.119,98.897,246.585,98.749,247.032,98.567z
	 M244.749,76.895c0.111-0.133,0.114-0.212,0.011-0.276c-0.153-0.095-0.529,0.151-0.529,0.347
	C244.23,77.148,244.578,77.101,244.749,76.895z M241.081,70.058c0.204-0.107,0.458-0.615,0.352-0.703
	c-0.024-0.021-0.259-0.011-0.52,0.022c-0.345,0.043-0.534,0.161-0.694,0.431c-0.12,0.205-0.22,0.413-0.22,0.461
	C239.999,70.375,240.761,70.226,241.081,70.058z M31.708,258.27c-0.084-0.084,0.341-0.837,0.473-0.838
	c0.055,0,0.099,0.104,0.099,0.234C32.28,257.907,31.825,258.387,31.708,258.27z M46.031,257.66c0-0.019-0.114-0.347-0.253-0.728
	c-0.25-0.682-0.25-0.691,0-0.691c0.139,0,0.253-0.045,0.254-0.1s0.244-0.215,0.539-0.356c0.402-0.193,0.593-0.223,0.759-0.117
	c0.294,0.187,0.744-0.022,0.931-0.434c0.096-0.21,0.254-0.315,0.473-0.315c0.207,0,0.387-0.111,0.485-0.298
	c0.196-0.372,0.373-0.491,0.601-0.403c0.216,0.083,0.229,0.484,0.029,0.875c-0.212,0.413-0.932,1.148-1.125,1.148
	c-0.09,0-0.203,0.123-0.25,0.273c-0.094,0.297-1.075,0.784-1.578,0.784c-0.167,0-0.377,0.089-0.468,0.198
	C46.287,257.666,46.031,257.771,46.031,257.66z M53.532,255.431c0.089-0.09,0.196-0.131,0.237-0.09
	c0.041,0.041-0.032,0.114-0.163,0.164C53.417,255.577,53.402,255.562,53.532,255.431z M44.455,254.708
	c0.165-0.174,0.328-0.288,0.363-0.253c0.035,0.035,0.129,0.013,0.208-0.051c0.223-0.18,0.97-0.309,1.049-0.182
	c0.195,0.316-0.492,0.739-1.256,0.773l-0.663,0.03L44.455,254.708z M46.502,254.049c-0.257-0.257-0.134-0.499,0.207-0.41
	c0.156,0.041,0.299-0.023,0.378-0.171c0.168-0.313,0.449-0.41,0.92-0.315c0.411,0.082,0.577,0.317,0.452,0.643
	c-0.084,0.221-0.444,0.273-0.444,0.066c0-0.243-0.288-0.137-0.358,0.132C47.569,254.324,46.813,254.36,46.502,254.049z
	 M71.681,246.656c0.09-0.108,0.217-0.164,0.283-0.123c0.168,0.104,0.007,0.32-0.24,0.32
	C71.556,246.854,71.547,246.816,71.681,246.656z M88.066,238.513c0.175-0.146,0.403-0.233,0.506-0.193
	c0.103,0.039,0.272,0.071,0.375,0.071s0.188,0.09,0.188,0.198c0,0.152-0.163,0.198-0.694,0.194l-0.694-0.004L88.066,238.513z
	 M124.642,218.069c-0.07-0.28-0.023-0.407,0.217-0.594c0.405-0.314,0.654-0.255,0.804,0.194c0.155,0.466-0.062,0.756-0.565,0.756
	C124.81,218.426,124.712,218.349,124.642,218.069z M192.487,187.794c-0.048-0.048-0.088-0.197-0.088-0.331
	c0-0.211,0.036-0.222,0.265-0.078c0.146,0.091,0.265,0.239,0.265,0.331C192.929,187.892,192.637,187.943,192.487,187.794z
	 M184.863,182.94c0-0.027,0.104-0.132,0.231-0.231c0.209-0.164,0.214-0.16,0.05,0.05
	C184.972,182.979,184.863,183.049,184.863,182.94z M216.118,166.361c-0.081-0.054-0.187-0.223-0.234-0.376
	c-0.104-0.331,0.114-0.547,0.659-0.655c0.338-0.068,0.403-0.028,0.538,0.33c0.137,0.361,0.122,0.429-0.129,0.604
	C216.645,166.479,216.35,166.514,216.118,166.361z M240.145,130.73c-0.155-0.417-0.071-0.554,0.453-0.744
	c0.536-0.194,0.67-0.139,0.755,0.309C241.479,130.96,240.378,131.357,240.145,130.73z M237.853,111.101
	c0.164-0.031,0.402-0.03,0.528,0.003c0.127,0.033-0.008,0.059-0.299,0.058C237.791,111.159,237.688,111.132,237.853,111.101z
	 M84.572,103.788c-0.046-0.074-0.288-0.219-0.538-0.324c-0.479-0.2-1.103-0.816-1.11-1.095c-0.002-0.091-0.05-0.166-0.105-0.166
	s-0.242-0.297-0.415-0.66c-0.264-0.558-0.303-0.8-0.246-1.554c0.062-0.825,0.412-1.75,0.663-1.752c0.055,0,0.099-0.07,0.099-0.154
	c0-0.272,1.197-1.261,1.712-1.416c1.757-0.526,3.579,0.27,4.375,1.911c0.342,0.705,0.386,2.208,0.076,2.551
	c-0.117,0.129-0.213,0.323-0.213,0.43c0,0.261-0.306,0.906-0.43,0.908c-0.131,0.001-0.628,0.501-0.628,0.631
	c0,0.056-0.431,0.265-0.958,0.465C85.885,103.93,84.73,104.044,84.572,103.788z M78.046,97.875
	c-0.529-0.065-1.478-0.629-1.838-1.093c-0.141-0.182-0.329-0.553-0.418-0.825c-0.088-0.271-0.216-0.528-0.284-0.57
	c-0.067-0.042-0.123-0.492-0.123-1c0-1.382,0.564-2.494,1.521-2.995c0.7-0.366,1.971-0.568,2.703-0.43
	c1.634,0.31,2.917,1.798,2.917,3.383c0,0.951-0.345,1.615-1.342,2.588C80.178,97.913,79.649,98.072,78.046,97.875z M157.625,88.584
	c0-0.073,0.06-0.132,0.133-0.132c0.072,0,0.132,0.06,0.132,0.132s-0.06,0.132-0.132,0.132
	C157.685,88.717,157.625,88.657,157.625,88.584z M286.145,86.014c0-0.032,0.06-0.095,0.132-0.14
	c0.073-0.045,0.133-0.019,0.133,0.058s-0.06,0.14-0.133,0.14C286.204,86.072,286.145,86.046,286.145,86.014z M92.144,79.521
	c-0.345-0.094-0.71-0.255-0.812-0.356s-0.356-0.33-0.566-0.506c-0.479-0.404-0.97-1.713-0.97-2.591c0-0.426,0.114-0.892,0.327-1.332
	c0.367-0.761,1.295-1.753,1.641-1.753c0.125,0,0.286-0.059,0.358-0.13c0.264-0.264,1.486-0.399,2.173-0.241
	c0.362,0.083,0.659,0.201,0.659,0.262c0,0.06,0.096,0.109,0.213,0.109c0.181,0,0.961,0.724,1.45,1.345
	c0.325,0.413,0.461,1.415,0.316,2.323c-0.078,0.488-0.184,0.919-0.235,0.957c-0.051,0.038-0.234,0.277-0.407,0.532
	c-0.463,0.684-1.303,1.322-1.74,1.322c-0.206,0-0.411,0.06-0.456,0.132C93.983,79.771,92.916,79.732,92.144,79.521z M295.4,78.007
	c0-0.146-0.016-0.305-0.033-0.354c-0.037-0.101,1.345-0.955,1.558-0.963c0.173-0.006,0.452,0.718,0.343,0.89
	c-0.18,0.281-1.031,0.69-1.438,0.691C295.488,78.271,295.4,78.217,295.4,78.007z M233.75,66.517
	c-0.044-0.169,0.035-0.305,0.247-0.417c0.172-0.092,0.347-0.277,0.39-0.411c0.042-0.134,0.129-0.243,0.192-0.243
	c0.16,0,0.289,0.232,0.159,0.286c-0.058,0.024-0.241,0.268-0.408,0.54C233.992,66.826,233.847,66.887,233.75,66.517z
	 M129.152,60.214c-0.284-0.25-0.357-0.408-0.299-0.642c0.111-0.443,0.423-0.51,0.789-0.17c0.244,0.227,0.3,0.389,0.251,0.723
	C129.817,60.637,129.655,60.656,129.152,60.214z M191.914,56.089c-0.196-0.267-0.24-0.446-0.161-0.661
	c0.249-0.674,1.1-0.082,0.952,0.664C192.611,56.564,192.265,56.563,191.914,56.089z M140.962,43.754
	c-0.113-0.212-0.082-0.461,0.142-1.136c0.211-0.634,0.249-0.903,0.141-1.011c-0.299-0.299-0.03-1.152,0.363-1.152
	c0.083,0,0.151-0.06,0.151-0.132c0-0.213,0.505-0.151,0.633,0.078c0.106,0.19,0.139,0.189,0.344-0.016
	c0.124-0.124,0.24-0.204,0.257-0.177c0.348,0.544,0.389,0.795,0.216,1.318c-0.099,0.299-0.347,0.754-0.55,1.011
	c-0.204,0.256-0.371,0.533-0.371,0.614c0,0.216-0.735,0.874-0.976,0.874C141.2,44.026,141.042,43.904,140.962,43.754z
	 M205.978,42.684c-0.313-0.175-0.279-0.54,0.123-1.308c0.246-0.472,0.323-0.775,0.268-1.054c-0.109-0.546,0.004-0.758,0.542-1.013
	c0.436-0.207,0.477-0.207,0.629,0.002c0.09,0.123,0.3,0.208,0.465,0.189c0.476-0.055,0.59,0.577,0.221,1.216
	c-0.366,0.634-1.333,1.725-1.529,1.725c-0.081,0-0.148,0.053-0.148,0.118C206.547,42.747,206.22,42.819,205.978,42.684z"/>
</svg>
